<?xml version="1.0" encoding="UTF-8" standalone="no"?>
<!-- Created with Inkscape (http://www.inkscape.org/) -->

<svg
   xmlns:dc="http://purl.org/dc/elements/1.1/"
   xmlns:cc="http://creativecommons.org/ns#"
   xmlns:rdf="http://www.w3.org/1999/02/22-rdf-syntax-ns#"
   xmlns:svg="http://www.w3.org/2000/svg"
   xmlns="http://www.w3.org/2000/svg"
   xmlns:sodipodi="http://sodipodi.sourceforge.net/DTD/sodipodi-0.dtd"
   xmlns:inkscape="http://www.inkscape.org/namespaces/inkscape"
   version="1.1"
   id="svg815"
   width="1133.8583"
   height="1854.3156"
   viewBox="0 0 1133.8583 1854.3156"
   sodipodi:docname="lightbulb_1.svg"
   inkscape:version="0.92.2 (5c3e80d, 2017-08-06)">
  <metadata
     id="metadata821">
    <rdf:RDF>
      <cc:Work
         rdf:about="">
        <dc:format>image/svg+xml</dc:format>
        <dc:type
           rdf:resource="http://purl.org/dc/dcmitype/StillImage" />
        <dc:title></dc:title>
      </cc:Work>
    </rdf:RDF>
  </metadata>
  <defs
     id="defs819" />
  <sodipodi:namedview
     pagecolor="#ffffff"
     bordercolor="#666666"
     borderopacity="1"
     objecttolerance="10"
     gridtolerance="10"
     guidetolerance="10"
     inkscape:pageopacity="0"
     inkscape:pageshadow="2"
     inkscape:window-width="1304"
     inkscape:window-height="746"
     id="namedview817"
     showgrid="false"
     fit-margin-top="0"
     fit-margin-left="0"
     fit-margin-right="0"
     fit-margin-bottom="0"
     inkscape:zoom="0.078894235"
     inkscape:cx="-410.91446"
     inkscape:cy="937.68987"
     inkscape:window-x="54"
     inkscape:window-y="-8"
     inkscape:window-maximized="1"
     inkscape:current-layer="svg815" />
  <path
     style="fill:#000000;stroke-width:2.26282358"
     d="m 424.67857,1851.2629 c -32.85892,-7.0796 -60.91007,-38.6863 -61.82787,-69.6651 -0.2924,-9.8638 0.50303,-12.0911 6.01204,-16.8337 l 6.34892,-5.4659 h 192.08756 192.08773 l 6.3489,5.4632 c 5.598,4.8171 6.2916,6.8466 5.8636,17.1581 -1.297,31.2526 -28.0797,61.4939 -61.4087,69.3388 -17.3102,4.0745 -266.60324,4.0784 -285.51218,0 z m -42.40962,-127.9111 c -23.55956,-8.1384 -44.3058,-32.0451 -50.0385,-57.6613 -2.43994,-10.9031 -2.31894,-13.6319 0.90542,-20.427 2.38275,-5.0214 6.22994,-8.7171 10.69404,-10.2733 9.63997,-3.3605 437.41814,-3.3189 447.06334,0.044 10.5037,3.6617 14.6872,14.4203 11.5109,29.603 -5.4771,26.1808 -24.8696,49.4501 -48.6163,58.3347 -12.1395,4.5421 -16.3528,4.6458 -186.00763,4.5737 -161.88773,-0.068 -174.39057,-0.3517 -185.51127,-4.1931 z m -27.67506,-122.8089 c -37.04859,-10.0708 -68.78129,-65.3961 -48.90788,-85.2697 l 6.01714,-6.017 h 255.59607 255.59623 l 6.1906,6.1906 c 4.9291,4.9292 6.1151,8.0849 5.8199,15.486 -1.21,30.3456 -26.6652,61.5318 -57.1331,69.9965 -10.5316,2.9259 -412.34304,2.5589 -423.17896,-0.3864 z m -64.33078,-163.1314 c -5.52515,-131.0151 -32.30549,-234.1324 -90.35473,-347.9089 -17.70552,-34.7028 -23.09132,-44.4049 -48.98797,-88.2501 C 53.001973,835.4688 24.070033,768.74679 8.368633,672.50493 c -23.71823,-145.3809 3.23725,-286.27201 77.58816,-405.53871 12.11589,-19.4352 17.818367,-27.5361 39.475107,-56.0776 11.77563,-15.5192 57.64193,-62.2182 77.55285,-78.9607 72.62138,-61.065502 162.40739,-103.572702 256.83047,-121.590802 139.48181,-26.6164 280.78073,-1.4781 400.81483,71.3085 113.6903,68.939802 200.75045,176.873622 243.69255,302.120772 20.7646,60.563 29.3505,113.77235 29.5326,183.02394 0.3367,128.08789 -26.9435,220.32852 -106.2011,359.09039 -11.9487,20.91938 -24.0483,41.59918 -26.8881,45.95504 -13.94355,21.38847 -51.69085,89.17074 -69.30795,124.45534 -23.5753,47.2182 -32.7805,69.1962 -47.3455,113.0395 -23.6184,71.0966 -34.025,128.6899 -38.7589,214.504 l -2.7774,50.3479 H 567.19502 291.81378 Z m 133.72778,-80.33 c -1.28488,-56.5807 -5.94873,-141.144 -9.32855,-169.1462 -4.91416,-40.7128 -6.59381,-53.814 -10.58967,-82.593 -5.35881,-38.5959 -15.81696,-98.0598 -30.24585,-171.97452 -22.20866,-113.76832 -33.64994,-186.15003 -31.53298,-199.48829 1.08091,-6.81018 5.90718,-12.83421 27.19361,-33.94235 40.39598,-40.05782 48.82167,-41.50103 78.57757,-13.45944 22.52009,21.22252 32.3045,27.39618 43.41961,27.39618 10.31858,0 24.76019,-8.66319 41.87229,-25.11838 18.20361,-17.50466 22.6422,-20.13811 33.9423,-20.13811 11.66501,0 16.209,2.76398 36.6688,22.30417 33.15541,31.66523 44.89881,31.05142 82.42253,-4.3081 29.9635,-28.23512 37.3427,-27.08795 77.0031,11.97092 20.6954,20.38139 27.8547,28.91241 28.8886,34.42336 2.326,12.39942 -9.3899,86.87188 -31.5206,200.36004 -24.047,123.31442 -36.015,201.69632 -42.8431,280.59012 -4.4815,51.7818 -8.0329,127.9121 -8.0487,172.5401 l -0.017,35.6395 h 41.6994 41.6993 l 1.2305,-11.8798 c 0.6768,-6.5338 2.3338,-24.0992 3.6824,-39.0337 4.1187,-45.611 12.3996,-89.956 26.0665,-139.5863 20.4348,-74.2089 52.2213,-147.5471 96.9119,-223.5967 3.291,-5.6005 9.0736,-15.78326 12.85,-22.62833 3.7765,-6.84507 10.2197,-18.04599 14.3183,-24.89106 56.65165,-94.61397 84.81165,-150.20323 104.31185,-205.91691 23.6368,-67.53236 32.1532,-125.34693 29.9455,-203.28472 -2.4037,-84.84598 -20.2411,-152.43103 -60.3574,-228.69086 -41.05075,-78.0361 -110.94725,-151.4184 -188.60765,-198.0137 -55.8296,-33.496902 -116.2624,-55.660602 -183.71557,-67.377302 -42.66131,-7.4103 -122.52472,-7.4103 -165.18602,0 -55.00329,9.5542 -102.85451,25.1197 -149.34637,48.580802 -132.92405,67.0773 -233.22337,191.60931 -268.299377,333.12189 -11.20915,45.22187 -13.75804,65.00598 -15.01492,116.53543 -3.03513,124.43764 23.18535,213.20712 104.706227,354.48278 12.09722,20.9644 31.12887,53.90029 42.2925,73.19089 51.90771,89.69519 70.57091,128.02769 93.44008,191.91719 22.60036,63.1382 38.2359,132.9303 43.94535,196.1569 1.34853,14.9345 3.00558,32.4999 3.6824,39.0337 l 1.2304,11.8798 h 42.0629 42.0629 z m 234.73904,6.7884 c 2.30979,-85.5003 8.5973,-171.0868 17.49602,-238.1621 8.1812,-61.6666 15.0893,-101.5949 38.1704,-220.62539 10.2428,-52.82245 23.8702,-132.24544 26.1536,-152.42877 l 1.4838,-13.11479 -8.7342,-6.87332 c -16.1908,-12.74143 -23.1974,-11.9826 -38.3754,4.15621 -5.1017,5.42468 -15.6451,16.67879 -23.42952,25.00913 -22.9628,24.57268 -32.89421,24.08131 -62.58491,-3.09649 -38.11301,-34.8873 -46.91841,-34.54347 -86.7764,3.38857 -16.3166,15.52828 -24.92039,19.2368 -37.9765,16.3692 -6.6767,-1.46643 -25.1961,-19.03535 -38.75661,-36.76736 -9.6822,-12.66082 -21.23875,-19.71263 -29.07961,-17.74465 -3.31006,0.83077 -10.00925,4.67133 -14.88711,8.5346 l -8.86863,7.02411 1.51366,13.7557 c 2.18978,19.89866 12.95664,82.45612 24.95629,144.9994 5.73082,29.86931 12.9646,68.0544 16.07511,84.85596 3.1105,16.80139 7.0856,37.67589 8.8335,46.38779 4.2063,20.9653 18.4522,124.6704 21.448,156.1349 4.73609,49.7418 8.9375,121.1989 10.4773,178.1973 l 1.5743,58.2676 h 89.8562 89.85651 z"
     id="path825"
     inkscape:connector-curvature="0"
     inkscape:export-xdpi="96"
     inkscape:export-ydpi="96" />
</svg>
