<?xml version="1.0" encoding="UTF-8" standalone="no"?>
<!-- Created with Inkscape (http://www.inkscape.org/) -->

<svg
   xmlns:dc="http://purl.org/dc/elements/1.1/"
   xmlns:cc="http://creativecommons.org/ns#"
   xmlns:rdf="http://www.w3.org/1999/02/22-rdf-syntax-ns#"
   xmlns:svg="http://www.w3.org/2000/svg"
   xmlns="http://www.w3.org/2000/svg"
   xmlns:sodipodi="http://sodipodi.sourceforge.net/DTD/sodipodi-0.dtd"
   xmlns:inkscape="http://www.inkscape.org/namespaces/inkscape"
   version="1.1"
   id="svg1996"
   width="377.95276"
   height="480.20544"
   viewBox="0 0 377.95276 480.20544"
   sodipodi:docname="NFC_Logo.svg"
   inkscape:version="0.92.2 (5c3e80d, 2017-08-06)">
  <metadata
     id="metadata2002">
    <rdf:RDF>
      <cc:Work
         rdf:about="">
        <dc:format>image/svg+xml</dc:format>
        <dc:type
           rdf:resource="http://purl.org/dc/dcmitype/StillImage" />
        <dc:title></dc:title>
      </cc:Work>
    </rdf:RDF>
  </metadata>
  <defs
     id="defs2000" />
  <sodipodi:namedview
     pagecolor="#ffffff"
     bordercolor="#666666"
     borderopacity="1"
     objecttolerance="10"
     gridtolerance="10"
     guidetolerance="10"
     inkscape:pageopacity="0"
     inkscape:pageshadow="2"
     inkscape:window-width="1304"
     inkscape:window-height="746"
     id="namedview1998"
     showgrid="false"
     fit-margin-top="0"
     fit-margin-left="0"
     fit-margin-right="0"
     fit-margin-bottom="0"
     inkscape:zoom="0.46276988"
     inkscape:cx="93.520088"
     inkscape:cy="78.9945"
     inkscape:window-x="54"
     inkscape:window-y="-8"
     inkscape:window-maximized="1"
     inkscape:current-layer="svg1996" />
  <path
     style="fill:#000000;stroke-width:1.64595795"
     d="m 285.78982,477.6413 c -10.64294,-5.54937 -15.6403,-13.09182 -15.6403,-23.60563 0,-4.91235 2.86213,-12.22759 11.1409,-28.47452 13.35966,-26.21821 15.15656,-30.51458 24.28883,-58.07491 7.79593,-23.52724 12.15733,-41.62797 16.65707,-69.13025 4.55463,-27.83783 4.10793,-92.79665 -0.83764,-121.80088 -7.88576,-46.24778 -19.48616,-81.950202 -39.22676,-120.727702 -8.92014,-17.522245 -12.0224,-25.294579 -12.0224,-30.120462 0,-18.9021675 20.69453,-31.5560175 37.54706,-22.9585005 7.61847,3.88665 11.70697,10.0106005 24.83054,37.1921835 10.25763,21.245619 11.935,25.156679 18.00066,41.971929 19.7546,54.763902 27.42497,98.957412 27.42497,158.011932 0,57.38473 -7.86863,103.4682 -26.55857,155.54303 -8.33443,23.22186 -21.05216,50.99906 -31.82886,69.51846 -7.894,13.5656 -21.93784,18.82765 -33.7755,12.65532 z m -88.11434,-46.68865 c -11.61016,-3.52743 -18.39226,-12.4887 -18.51773,-24.46773 -0.0632,-6.03235 1.39718,-10.4319 6.66352,-20.07438 17.15588,-31.41187 28.82821,-66.12442 34.31338,-102.04518 3.8257,-25.05345 3.82763,-63.8064 0.005,-88.88172 -5.3006,-34.76472 -18.09497,-72.66233 -34.78498,-103.034962 -4.64184,-8.44725 -6.11205,-13.01017 -6.11205,-18.96915 0,-23.596182 29.17716,-34.644849 44.72536,-16.9364 7.25987,8.26853 24.83597,45.470052 32.98234,69.810282 16.0371,47.91671 21.79466,100.24096 16.572,150.60515 -4.36987,42.14073 -15.0128,79.34758 -33.98254,118.80048 -11.78896,24.51838 -17.96166,32.61419 -26.7221,35.04739 -6.86843,1.90772 -9.26753,1.93089 -15.1416,0.14617 z m -96.57684,-49.0643 c -8.185246,-4.51085 -12.505276,-11.28101 -13.270546,-20.79703 -0.61223,-7.61305 0.17695,-10.07262 8.24658,-25.70128 14.591616,-28.25985 20.022896,-46.11758 22.959616,-75.48981 1.56565,-15.65937 1.56565,-24.29209 0,-39.95146 -2.93672,-29.37223 -8.368,-47.22996 -22.959616,-75.48983 -8.02555,-15.54325 -8.8565,-18.1174 -8.25676,-25.5783 1.51111,-18.79933 19.827356,-29.210852 37.028706,-21.048262 13.57345,6.441012 34.8737,52.712332 43.43678,94.359342 5.08985,24.7548 5.08985,70.71076 0,95.46555 -8.56308,41.64702 -29.86333,87.91835 -43.43678,94.35935 -7.49558,3.5569 -17.15568,3.50472 -23.74798,-0.12817 z M 19.140984,339.21656 c -5.21742,-1.37882 -13.7686395,-8.4985 -16.4613195,-13.70559 -4.80718,-9.2961 -3.26101001,-18.57438 5.5671,-33.4073 12.1418695,-20.40065 14.1861195,-27.91981 14.1861195,-52.17918 0,-24.25935 -2.04425,-31.77852 -14.1861195,-52.17917 -6.49313,-10.90968 -8.03430001,-14.951 -8.03430001,-21.0677 0,-9.24028 3.21242001,-15.82861 10.28549951,-21.09451 17.0922,-12.72507 33.92365,-3.91042 48.41903,25.35715 11.85522,23.9368 17.00952,44.84073 17.00952,68.98423 0,29.9908 -11.2143,65.2302 -27.64908,86.88343 -7.70332,10.1493 -19.18414,15.03875 -29.13645,12.40864 z"
     id="path2017"
     inkscape:connector-curvature="0"
     inkscape:export-xdpi="96"
     inkscape:export-ydpi="96" />
</svg>
