<?xml version="1.0" encoding="UTF-8" standalone="no"?>
<!-- Created with Inkscape (http://www.inkscape.org/) -->

<svg
   xmlns:dc="http://purl.org/dc/elements/1.1/"
   xmlns:cc="http://creativecommons.org/ns#"
   xmlns:rdf="http://www.w3.org/1999/02/22-rdf-syntax-ns#"
   xmlns:svg="http://www.w3.org/2000/svg"
   xmlns="http://www.w3.org/2000/svg"
   xmlns:sodipodi="http://sodipodi.sourceforge.net/DTD/sodipodi-0.dtd"
   xmlns:inkscape="http://www.inkscape.org/namespaces/inkscape"
   width="549.73645mm"
   height="536.01843mm"
   viewBox="0 0 549.73645 536.01843"
   version="1.1"
   id="svg4233"
   inkscape:version="0.92.2 (5c3e80d, 2017-08-06)"
   sodipodi:docname="rayon_final2.svg"
   inkscape:export-filename="C:\Users\LB\Desktop\PCB business card\Design\ampoules\rayon_final2.png"
   inkscape:export-xdpi="96"
   inkscape:export-ydpi="96">
  <defs
     id="defs4227" />
  <sodipodi:namedview
     id="base"
     pagecolor="#ffffff"
     bordercolor="#666666"
     borderopacity="1.0"
     inkscape:pageopacity="0.0"
     inkscape:pageshadow="2"
     inkscape:zoom="0.24748737"
     inkscape:cx="966.31529"
     inkscape:cy="965.84396"
     inkscape:document-units="mm"
     inkscape:current-layer="layer1"
     showgrid="false"
     fit-margin-top="0"
     fit-margin-left="0"
     fit-margin-right="0"
     fit-margin-bottom="0"
     inkscape:window-width="1304"
     inkscape:window-height="746"
     inkscape:window-x="54"
     inkscape:window-y="-8"
     inkscape:window-maximized="1" />
  <metadata
     id="metadata4230">
    <rdf:RDF>
      <cc:Work
         rdf:about="">
        <dc:format>image/svg+xml</dc:format>
        <dc:type
           rdf:resource="http://purl.org/dc/dcmitype/StillImage" />
        <dc:title></dc:title>
      </cc:Work>
    </rdf:RDF>
  </metadata>
  <g
     inkscape:label="Calque 1"
     inkscape:groupmode="layer"
     id="layer1"
     transform="translate(138.02624,101.43675)">
    <path
       inkscape:connector-curvature="0"
       style="fill:#000000;stroke-width:1.59038067"
       d="m -96.260458,-101.69369 c -0.624059,2.199813 -1.597478,4.735709 -2.928356,7.745358 -4.635076,10.479743 -5.084926,18.39156 -1.264096,22.212386 2.355258,2.355259 4.869928,2.572691 19.094806,1.653406 18.23412,-1.179019 21.285546,-0.317996 24.251485,6.843155 1.674305,4.041992 1.439849,6.505728 -1.588779,16.708294 -3.370658,11.354663 -3.414828,12.176244 -0.86703,16.064598 3.647235,5.566431 8.579733,7.137326 22.412989,7.137326 18.793144,0 22.308558,4.888536 19.082913,26.550136 -1.160406,7.791503 -0.962881,8.528437 3.481048,12.972336 3.759171,3.759171 6.6151894,4.924959 14.12734863,5.766763 C 18.753195,24.112449 23.060709,28.41376 23.253592,45.63249 c 0.114014,10.142609 0.472646,11.226359 5.088438,15.349594 2.731038,2.440309 8.921974,5.587287 13.757171,6.992581 14.2762,4.150098 20.062402,10.60423 22.442463,25.030622 1.33572,8.097033 5.371794,12.586463 18.892652,21.013433 0.496268,0.30932 0.958859,0.60587 1.426433,0.90425 0.879091,-0.83524 1.686568,-1.57685 2.299672,-2.09235 0.314821,-0.26474 0.631813,-0.52677 0.951306,-0.78637 -0.04082,-0.0214 -0.08114,-0.0434 -0.122019,-0.0646 C 77.576709,106.6119 71.768676,99.014186 68.358763,86.299635 64.714277,72.711604 60.477136,66.101877 54.57832,64.800214 36.321813,60.770983 32.122611,56.266305 30.650486,39.132626 29.026808,20.239623 24.23129,14.841867 9.0719568,14.841867 c -4.5710502,0 -8.26781138,-1.124329 -11.1483315,-3.390064 C -8.3867982,6.4881344 -9.6802479,1.6969588 -7.6838914,-9.3129483 -4.2922264,-28.016866 -10.236605,-34.786801 -28.744892,-33.301274 c -10.186362,0.817345 -10.82025,0.65738 -15.38059,-3.902941 -5.229923,-5.22993 -5.297009,-7.085973 -0.887192,-24.482063 2.615652,-10.318296 0.9158,-18.105539 -4.313433,-19.765378 -1.734584,-0.552132 -9.792304,-0.505385 -17.907227,0.102893 -14.749801,1.106012 -14.754619,1.105456 -18.183831,-3.254082 -3.826361,-4.864394 -4.291433,-5.760331 -0.506673,-17.090845 z m 75.742267,0 c 3.361411,1.15381 5.087298,2.730344 6.378376,5.142701 2.592913,4.844831 1.946643,8.562394 -3.144466,18.103688 -8.992889,16.851528 -5.172549,23.924901 14.4964954,26.84431 9.2974047,1.379537 12.5887316,2.635719 16.0899296,6.136934 5.311554,5.311569 5.464098,8.843252 0.928554,21.49166 l -1.613072,8.757671 1.27495,6.3509789 c 2.592573,4.4797424 5.152639,6.1101196 14.761723,9.39670721 7.689204,2.62946989 12.974006,5.55070949 15.61067,8.62891439 3.785013,4.4194675 3.932024,5.3070735 2.905602,17.6264955 -1.027112,12.327737 -0.881793,13.210199 2.933525,17.744372 2.208178,2.624257 8.287701,7.047957 13.509013,9.83099 11.22966,5.985278 16.115781,13.989803 16.115781,26.399149 0,9.58049 3.342232,15.168948 15.187747,25.390469 0.214413,0.18504 0.428125,0.37578 0.641608,0.56714 1.205087,-0.75664 2.431295,-1.48272 3.679052,-2.17298 -0.222386,-0.21406 -0.431176,-0.41742 -0.664358,-0.64007 C 88.313904,94.109657 84.499896,86.64562 84.499876,76.362133 c 0,-13.824644 -4.630538,-21.960672 -15.108649,-26.544418 -3.498776,-1.530683 -8.150305,-4.723883 -10.337132,-7.096 C 55.281827,38.628784 55.097509,37.57707 55.505324,22.107408 56.035068,1.891382 54.162861,-1.4594235 40.78289,-4.2369463 24.954997,-7.5225285 20.883586,-14.692414 25.835559,-30.558533 c 3.439187,-11.018534 3.67338,-14.996758 1.204117,-20.415771 -2.098306,-4.605111 -7.11601,-6.806122 -17.8669009,-7.83738 -9.77824506,-0.938239 -15.9592365,-5.366125 -16.6115991,-11.900072 -0.2948313,-2.950804 1.4594693,-9.374764 4.3734054,-16.013403 3.01950674,-6.879924 4.5391148,-11.499513 4.6329398,-14.968531 z m 49.281062,0 c -0.770749,1.06614 -1.617755,2.206562 -2.563858,3.450515 -2.922891,3.843247 -5.314887,8.729003 -5.314887,10.857273 0,5.770681 7.683402,12.40101 17.768153,15.332489 12.866425,3.740593 16.448181,7.128724 16.396527,15.585341 -0.01961,4.877549 -1.301724,8.756611 -4.373406,13.232913 -4.887562,7.123986 -5.561855,14.283204 -1.844704,19.589585 1.374649,1.963275 6.766092,5.723404 11.981241,8.355946 9.890138,4.992275 15.729566,11.9232078 15.729566,18.7044699 0.003,2.0249602 -1.495256,7.1708161 -3.330065,11.4352691 C 68.62454,25.51285 70.75263,31.81621 81.866214,40.489776 95.412905,51.061911 97.008169,53.456048 95.419168,70.486288 l 2.146118,14.012594 2.527674,6.2817 c 2.5246,4.938276 6.7428,8.884066 7.41757,9.806668 1.41409,-0.57773 2.84552,-1.114994 4.29223,-1.609441 -0.37876,-0.450806 -0.77381,-0.904063 -1.19016,-1.364924 -7.82421,-8.660499 -9.09023,-13.21113 -8.76645,-31.568225 l -1.46831,-13.907634 -3.636158,-7.562843 c -2.967312,-2.794759 -7.269223,-6.348282 -9.560071,-7.897894 -2.373857,-1.604759 -4.98957,-5.565747 -6.081093,-9.207472 -1.619196,-5.40525 -1.471635,-7.792003 0.953887,-15.472593 5.796527,-18.3543456 3.460127,-24.823703 -11.336522,-31.386264 -4.518315,-2.003221 -8.992008,-5.093103 -9.940583,-6.865921 -3.032423,-5.665617 -1.92157,-14.256839 3.04623,-23.565928 5.202022,-9.748587 5.681322,-12.708258 3.00539,-18.58088 -2.028732,-4.452901 -5.642584,-6.537123 -15.728026,-9.072543 -14.438978,-3.629282 -17.633739,-10.74906 -10.301466,-24.218378 z m 38.729377,0 c 0.02851,0.53396 0.12589,1.08326 0.275051,1.6808 1.519308,6.087561 4.854396,9.305167 15.559475,15.011445 15.740062,8.38877 17.338006,16.682033 5.88515,30.541437 -8.70356,10.5298 -8.64104,16.345085 0.261605,24.399368 18.376721,16.625969 17.761891,15.780908 16.921811,23.2324462 -0.42572,3.7784463 -2.66421,9.6503017 -4.97365,13.04886 -2.309112,3.3988485 -4.198668,7.8308928 -4.198668,9.8495998 0,4.975384 5.114448,14.600835 10.334048,19.447408 8.93088,8.292973 11.14078,19.337185 6.2243,31.105513 -3.22772,7.724351 -2.26823,12.325966 6.063,29.064856 0.15994,0.321334 0.30047,0.607881 0.4529,0.915629 0.67,-0.146641 1.34162,-0.286598 2.01532,-0.415139 0.82921,-0.158246 1.659,-0.298093 2.48889,-0.429656 -0.53155,-1.08571 -1.13467,-2.23248 -1.84677,-3.544118 -5.66976,-10.442954 -6.35256,-17.623184 -2.66778,-28.067538 1.31196,-3.718892 2.3855,-10.280316 2.3855,-14.581297 0,-7.09712 -0.67446,-8.542112 -7.2966,-15.622025 -9.94146,-10.627591 -10.75574,-16.820879 -4.02855,-30.6303857 5.21098,-10.6957456 6.31833,-19.5433913 2.97592,-23.7748103 -1.09324,-1.383931 -4.99895,-4.373752 -8.67856,-6.642557 -11.928528,-7.354416 -13.468756,-16.888641 -4.60503,-28.501317 7.14844,-9.364889 8.90967,-12.841036 8.90967,-17.581519 0,-6.915236 -1.69037,-8.860987 -12.75159,-14.673308 -8.844187,-4.647173 -13.360791,-9.075535 -13.966562,-13.833692 z m 50.343532,0 c 1.30694,2.719439 3.42496,5.35394 6.25895,7.555614 12.56329,9.761002 15.10284,13.03957 14.92717,19.263859 -0.14913,5.252325 -1.39814,7.231379 -9.06838,14.369818 -8.02652,7.470464 -8.89469,8.919805 -8.89469,14.844469 0,5.545413 1.0774,7.728716 6.93417,14.051874 13.74507,14.838328 14.16893,22.1771521 2.01997,35.0094515 -7.08584,7.4839465 -6.70717,15.6201745 1.3344,28.6481565 7.41195,12.009104 7.87723,20.512358 1.69736,31.057941 -5.06598,8.678178 -5.06045,14.932984 0.0475,29.783009 0.234,0.680306 0.45036,1.329117 0.65815,1.963601 1.44405,-0.06343 2.88603,-0.08874 4.32428,-0.07233 -0.3599,-1.280724 -0.77049,-2.601177 -1.23201,-3.971183 -3.86112,-11.462852 -3.34838,-16.064967 3.37399,-30.275696 2.58225,-5.458325 4.67277,-12.070753 4.67277,-14.695041 -0.0217,-4.784922 -0.893,-6.734146 -7.52303,-16.827172 -5.30638,-8.07771 -4.70518,-15.471493 2.01272,-24.7467974 12.52887,-17.2976216 12.69472,-22.5347536 1.09452,-34.3905926 -6.27247,-6.4103 -7.41501,-8.538146 -7.41501,-13.802173 0,-5.467562 1.20308,-7.476871 9.9039,-16.537661 8.4335,-8.782766 9.90388,-11.17016 9.90388,-16.089402 0,-6.087222 -1.41921,-7.903689 -14.10099,-18.04733 -3.60204,-2.881013 -5.39431,-4.865042 -6.13637,-7.092415 z m 47.52632,0 c 0.21465,0.65295 0.47987,1.3296 0.79879,2.035454 1.38187,3.058222 5.5451,8.990987 9.25091,13.183811 5.13175,5.805808 6.73716,8.922532 6.73716,13.076787 0,6.241866 -5.06721,12.613334 -12.56389,15.798353 -12.46205,5.295712 -14.08718,14.617931 -5.08894,29.196181 4.36531,7.073002 5.88411,11.276414 5.88411,16.287934 0,6.1168958 -0.81385,7.5224533 -8.61602,14.8692753 -11.11773,10.4698367 -12.06158,14.7213537 -6.40628,28.8570367 6.24223,15.603656 5.15938,22.241206 -5.87533,36.007302 -3.63235,4.531541 -4.34651,11.668401 -2.62539,27.763012 1.5485,0.194613 3.08904,0.437429 4.62054,0.725387 -0.0794,-0.407625 -0.1642,-0.818352 -0.25851,-1.236202 -2.58225,-11.43804 -0.71621,-19.811862 6.57588,-29.495012 8.24545,-10.955819 10.70143,-18.869381 7.9387,-25.626218 -7.7078,-18.853393 -7.17394,-23.785846 3.68477,-34.0565977 3.9338,-3.7209528 8.26451,-8.3540456 9.62365,-10.2942382 3.62279,-5.1717489 3.07857,-12.9783691 -1.26926,-18.2045151 -11.74493,-14.119137 -9.41103,-24.591045 7.71536,-34.627901 8.10149,-4.747736 10.33819,-8.065427 10.33819,-15.333046 0,-3.961678 -1.79807,-7.01998 -7.95216,-13.527086 -5.75988,-6.090319 -8.46499,-11.018031 -7.9677,-15.399717 z m 50.04677,0 c -0.26016,0.22549 -0.51466,0.45677 -0.76051,0.70261 -4.41463,4.414997 -3.17454,11.373142 4.13816,23.221065 3.28663,5.324275 5.66696,11.241977 5.66696,14.087029 0,6.678611 -6.05289,12.796724 -14.85116,15.012481 -13.85565,3.4888 -17.59105,13.416887 -10.73265,28.525617 6.16473,13.5804515 3.14401,24.4807912 -8.20241,29.5974027 -12.01221,5.4173163 -14.74309,13.7990213 -10.49274,32.2129543 2.37625,10.292452 -1.05662,20.289872 -9.06169,26.396047 -7.83281,5.974213 -9.13489,9.32944 -10.35833,26.688687 -0.0929,1.318542 -0.17939,2.497907 -0.26574,3.622686 1.19059,0.377591 2.3731,0.783416 3.5462,1.219635 0.14251,-13.233531 2.7611,-19.089577 13.3849,-30.666043 11.33952,-12.356301 13.08193,-17.369933 9.52181,-27.388213 -4.32782,-12.179976 -0.32461,-21.26861 12.73814,-28.923708 14.05643,-8.2378873 16.60784,-15.8775316 9.66502,-28.936133 -4.58374,-8.62124 -4.87458,-11.784605 -1.65547,-18.009609 2.10278,-4.065737 10.22917,-9.067541 19.29542,-11.874712 1.82999,-0.566613 5.01488,-2.826497 7.07737,-5.022268 5.50925,-5.864733 4.8778,-12.585459 -2.14146,-22.769732 -3.23219,-4.690532 -5.87688,-10.140676 -5.87688,-12.111522 0,-6.267385 5.88896,-11.741882 15.61068,-14.510464 1.26501,-0.36024 2.45737,-0.71738 3.60717,-1.07381 z m 80.00504,0 c 0.38775,1.18644 0.61112,2.089005 0.61112,2.563842 0,1.590272 -2.09188,4.983539 -4.64898,7.54064 -3.9958,3.9958 -5.86034,4.648972 -13.2805,4.648972 -11.24037,0 -17.77659,2.386468 -20.02025,7.310527 -2.54815,5.592267 -2.32466,7.466336 2.16575,18.13524 2.18683,5.195837 3.97582,11.51836 3.97582,14.051345 0,6.70135 -5.38712,12.693753 -12.39431,13.785629 -14.00375,2.183012 -17.88112,3.985714 -20.53468,9.54971 -2.38899,5.007099 -2.38104,6.326918 0.10339,17.6347794 2.57259,11.7187447 2.56103,12.4604901 -0.27919,17.9625466 -2.38731,4.625776 -4.93121,6.533841 -13.10678,9.83046 -13.38512,5.396966 -15.80918,9.335563 -15.80918,25.808205 -0.0114,16.59116 -4.01883,23.780845 -16.87527,30.272095 -5.69457,2.875017 -10.73183,13.211029 -12.52049,25.689309 -0.018,0.12658 -0.0392,0.24493 -0.0579,0.37017 1.33427,0.69423 2.65152,1.43092 3.95151,2.2066 0.0146,-0.20841 0.0246,-0.41438 0.0265,-0.61575 0.0344,-5.73725 4.03689,-15.236081 8.35958,-19.837746 1.87613,-1.996717 6.71085,-5.747734 10.74456,-8.335804 10.23009,-6.564996 14.16906,-14.220864 13.16466,-25.58795 -1.17832,-13.330407 1.87426,-18.002325 15.98135,-24.454657 17.80838,-8.145212 20.32601,-13.030153 15.3775,-29.831093 -4.03988,-13.716142 2.76499,-21.047343 22.49882,-24.238556 3.20185,-0.517324 7.69974,-2.849711 10.07294,-5.222864 5.11833,-5.118357 4.92766,-10.932451 -0.77759,-23.716893 -3.17226,-7.108818 -3.40137,-8.830969 -1.71236,-12.90875 2.62342,-6.333507 6.60262,-8.141001 21.58526,-9.809259 10.8005,-1.20226 13.22733,-2.03795 16.30139,-5.612173 4.5017,-5.23316 4.58929,-6.568491 -0.98699,-17.188575 z m 39.40251,0 c -0.65836,3.510128 -0.0566,8.381325 1.70717,14.738975 4.6251,16.671763 4.70276,19.401772 0.69798,24.492916 l -3.5886,4.562121 -14.04927,-1.059873 c -13.67485,-1.032291 -14.15977,-0.95023 -18.1983,3.088638 -4.41668,4.416716 -4.47235,5.657332 -1.26565,28.095966 0.98474,6.888738 0.68663,7.860145 -3.77832,12.325065 -4.43115,4.429791 -5.75467,4.848007 -15.42919,4.848007 -9.57567,0 -11.02457,0.44151 -15.23118,4.6484693 -4.42495,4.4239386 -4.64847,5.31707653 -4.64847,18.4490587 0,13.450955 -0.13151,13.929364 -5.16958,18.954702 -3.92655,3.917597 -7.09368,5.409852 -13.17812,6.212396 -4.40517,0.580358 -9.50015,2.100987 -11.32258,3.377128 -4.49488,3.148509 -8.49915,12.038378 -8.49915,18.868881 0,3.091021 -0.75982,7.635198 -1.68806,10.097238 -2.42141,6.422687 -10.74138,14.497166 -16.16489,15.688206 -7.89448,1.734251 -14.94818,9.424796 -19.44998,21.206306 -0.50528,1.32206 -1.00248,2.5688 -1.49832,3.75452 1.13471,0.86776 2.24234,1.76816 3.32595,2.6952 0.17363,-0.44371 0.34484,-0.89655 0.51288,-1.367 3.95414,-11.07224 9.57137,-16.937325 21.44409,-22.391778 13.3459,-6.131698 18.13813,-11.679356 19.35021,-22.398532 0.53559,-4.7381 1.99533,-10.638697 3.24323,-13.113473 2.23503,-4.431193 12.75905,-10.505554 18.32652,-10.574457 5.6856,-0.07193 15.0029,-5.059914 17.56963,-9.404966 2.08248,-3.524278 2.45201,-6.750324 1.69941,-14.806694 -0.91308,-9.7768046 -0.72471,-10.5658027 3.69923,-15.517105 4.29441,-4.8069531 5.59162,-5.2804099 16.50716,-6.0299091 18.74079,-1.2864653 23.98238,-5.7426494 21.53769,-18.3094459 -3.2782,-16.854282 -3.10759,-19.828777 1.40109,-24.337823 4.21452,-4.214531 4.6391,-4.292726 17.73867,-3.285609 22.37773,1.720087 27.52949,-3.455289 21.42708,-21.524775 -7.84829,-23.241182 -2.38911,-29.321601 22.0459,-24.555997 10.07268,1.964996 12.65173,1.988529 17.0402,0.155093 1.20426,-0.503187 2.22907,-1.042666 3.07828,-1.647185 -5.56481,-3.768785 -12.08651,-5.934264 -19.07308,-5.934264 z m -465.60604,16.934189 c -4.55015,6.949568 -7.23662,15.559346 -7.23662,24.904991 v 33.304377 c 3.59576,1.737796 8.68487,1.199296 17.18547,-1.382502 12.12141,-3.681694 17.97406,-4.149596 22.385595,-1.788858 4.613385,2.471017 6.445513,10.006573 4.833546,19.9132454 -2.800265,17.2053175 3.757212,23.6298556 20.575012,20.1562216 12.095914,-2.4985674 17.784647,-2.3512568 21.95026,0.566141 3.879042,2.716902 6.942414,11.696825 5.661802,16.594011 -0.461544,1.760433 -0.359953,5.747364 0.223865,8.861066 1.62333,8.650174 8.109294,11.865425 23.994015,11.865425 9.221248,0.004 13.7948591,0.726468 16.4694106,2.599535 4.4074117,3.086839 8.137769,11.340814 8.137769,18.004947 0,9.861565 8.7285224,15.422279 28.8632394,18.389601 8.378064,1.234791 13.834748,6.296316 18.859046,17.49362 4.902709,10.92792 8.916062,14.17234 24.640275,19.921 0.01,0.003 0.01831,0.007 0.02791,0.0108 0.261635,-0.34685 0.46031,-0.61479 0.764666,-1.01593 0.404504,-0.53308 1.103849,-1.33544 1.966192,-2.27381 -13.53399,-5.0841 -17.563561,-8.75215 -23.544717,-21.35413 C 47.526942,84.336304 44.318634,81.659501 30.979303,80.005489 21.759776,78.861991 19.442245,77.9215 15.796729,73.841656 11.873979,69.450782 10.508335,65.945302 7.4418157,52.397571 6.8717726,49.879755 4.2698659,45.683754 1.659035,43.073264 -2.918178,38.4957 -3.4490824,38.365358 -13.230389,39.41279 -30.49389,41.261375 -35.583779,36.567817 -36.868184,17.612485 -38.139842,-1.1448128 -44.26747,-6.0376901 -60.935093,-1.5965392 -79.233279,3.279317 -84.71856,-2.4291081 -83.050801,-24.609781 c 0.826647,-10.98923 0.56397,-12.697088 -2.556624,-16.620913 -4.227612,-5.316359 -8.814208,-5.570561 -21.536655,-1.192757 -11.12874,3.828741 -14.873,3.963214 -19.52599,0.704181 -4.16423,-2.916364 -4.655,-10.955533 -1.6622,-27.198465 1.72666,-9.371084 1.62205,-10.498617 -1.3494,-14.496482 -0.36356,-0.488946 -0.73212,-0.93456 -1.10795,-1.345284 z M 387.669,-68.67317 c -4.28007,-0.05345 -6.70566,1.998455 -8.77524,6.316858 -1.83003,3.815294 -1.89342,6.787036 -0.35829,16.814258 1.91749,12.525078 1.44635,16.205264 -2.68898,21.020157 -2.97899,3.468444 -11.8035,3.635979 -20.98137,0.397568 -9.48579,-3.346889 -13.85906,-2.985904 -18.36221,1.517954 -3.50121,3.502565 -3.90394,5.22792 -3.90394,16.8034034 0,21.2455066 -3.01089,24.2991496 -22.58724,22.8979586 -13.46817,-0.963702 -13.94467,-0.878681 -17.69731,3.170829 -3.92692,4.23693 -5.83604,10.357052 -5.83604,18.707573 0,5.848502 -3.68156,13.092673 -8.29699,16.325152 -2.22714,1.559988 -6.98681,2.481659 -12.81054,2.481659 -5.09731,0 -11.30604,1.053945 -13.79699,2.342072 -4.18526,2.164487 -11.21657,13.512905 -11.21657,18.103184 0,8.689804 -13.54342,20.904346 -23.17868,20.904346 -5.98525,0 -14.00671,5.742818 -18.48267,13.231898 -1.63678,2.73863 -3.18001,5.17796 -4.67328,7.37156 0.97583,1.05614 1.92026,2.14055 2.83635,3.24786 0.36652,-0.61198 0.73921,-1.24625 1.12811,-1.92897 5.75999,-10.1113 12.39971,-14.79433 25.6712,-18.10368 12.16412,-3.033448 21.46995,-10.157095 21.46995,-16.433772 0,-12.142388 9.86311,-20.74584 23.8565,-20.811272 5.12108,-0.02411 11.50997,-1.29478 15.41211,-3.066909 5.55853,-2.523009 6.95744,-4.109519 8.4206,-9.544043 0.94858,-3.584888 1.39134,-7.105114 0.94872,-7.822928 -1.9898,-3.219463 2.65391,-13.225507 7.52148,-16.208306 4.41633,-2.706557 6.84903,-2.976036 18.84198,-2.085629 13.33348,0.989914 13.90145,0.891307 17.89171,-3.098985 3.75299,-3.755389 4.12061,-5.262842 4.12061,-16.98849 0,-11.5417359 0.40188,-13.2703722 3.90342,-16.7718788 4.51312,-4.5131762 8.45238,-4.8264342 19.30213,-1.5350012 11.26789,3.4185456 19.05143,3.0868377 23.12439,-0.986469 3.09475,-3.094753 3.28275,-4.374495 2.15749,-14.711056 -1.77903,-16.350035 -1.33623,-20.480678 2.53493,-23.646056 4.24319,-3.470455 8.34747,-3.515536 18.80837,0.210418 v -9.302603 c 0,-0.53707 -0.0119,-1.070673 -0.0294,-1.602741 -2.92134,-0.658651 -6.3158,-1.783352 -10.21721,-3.345566 -6.27713,-2.513528 -10.72809,-3.828793 -14.05704,-3.870353 z m -512.68567,66.6604244 c -3.31538,0.064537 -7.55974,1.50606855 -13.00957,4.1211115 V 14.112338 c 1.70778,-0.54247 3.08499,-0.862374 3.88172,-0.862374 6.52225,0 11.88097,6.582814 11.93264,14.639185 0.0544,9.854661 2.54057,19.156258 5.74556,21.49945 4.06538,2.973195 13.55343,2.481179 21.477193,-1.114694 16.063135,-7.288982 24.836418,-2.751638 27.60741,14.278332 1.605073,9.860844 3.360993,12.62776 9.691391,15.273057 4.781121,1.997057 6.780516,1.973836 16.106475,-0.18924 17.265219,-4.003719 22.889734,-1.045151 28.960433,15.23738 4.2651535,11.438736 9.4834337,14.214726 26.803452,14.214726 14.866563,0.007 20.39149,2.80085 26.647838,13.47592 5.062866,8.63918 11.805236,12.53815 26.196481,15.14793 0.492947,0.0894 0.955988,0.18038 1.426434,0.27093 0.680146,-1.28032 1.402742,-2.54305 2.158004,-3.79072 -0.647621,-0.1192 -1.3152,-0.23191 -2.012725,-0.33815 C 57.690181,130.19252 51.224493,125.9365 44.039551,115.69021 40.439156,110.55602 35.008524,104.68124 31.971969,102.63463 27.176381,99.402062 25.269888,99.050974 17.460476,99.957532 3.942349,101.52609 -4.224674,96.212774 -8.6155478,82.99334 -11.800894,73.403866 -19.113978,65.734951 -25.075134,65.734951 c -2.40073,0 -7.637659,1.115115 -11.636916,2.478058 -6.460938,2.200584 -7.898748,2.214461 -12.900998,0.124069 -6.173335,-2.579156 -9.724834,-8.074669 -11.482838,-17.766072 -3.205669,-17.669966 -11.517121,-22.527153 -25.948317,-15.164486 -3.548384,1.810328 -9.290694,3.290777 -12.76089,3.290777 -8.897487,0 -12.165787,-4.645536 -13.615507,-19.357435 -1.48201,-15.0401161 -4.31996,-21.4942805 -11.59607,-21.3526076 z M 411.97271,8.0705426 c -0.6212,7.1874344 -3.27188,11.3138714 -8.30991,13.0700624 -4.16184,1.450775 -6.29519,0.993646 -15.28702,-3.274249 -17.51185,-8.3133331 -24.12091,-6.008338 -27.18502,9.480993 -3.8491,19.460294 -4.54079,20.971158 -10.80089,23.616055 -5.38113,2.27503 -6.45083,2.251019 -13.01889,-0.289539 -12.2554,-4.740131 -16.34771,-4.784182 -21.75431,-0.234182 -3.41126,2.870535 -5.64833,6.960865 -7.58818,13.874007 -4.53385,16.158232 -11.8812,20.873722 -27.18761,17.44761 -7.25316,-1.622998 -9.20199,-1.52293 -13.48677,0.692802 -2.7541,1.424242 -6.19824,4.752287 -7.6528,7.394803 -10.62586,19.304635 -16.25993,24.114015 -28.03344,23.931475 -10.95207,-0.16913 -15.95067,2.4523 -26.86962,14.09116 -0.80856,0.86168 -1.64165,1.70756 -2.49047,2.53801 0.72726,1.12488 1.42451,2.26915 2.09341,3.43038 0.0798,-0.0852 0.15318,-0.16086 0.23419,-0.24766 9.99903,-10.71266 14.67963,-13.09704 28.04895,-14.28813 16.61043,-1.48003 21.41487,-4.17073 26.0124,-14.56682 5.7359,-12.969075 10.29297,-15.236352 29.62377,-14.744146 14.27341,0.363735 15.64699,0.123329 19.41692,-3.40298 2.61832,-2.448593 4.43161,-6.295306 5.11428,-10.847428 0.58141,-3.879378 2.77784,-9.096708 4.87956,-11.594515 5.44729,-6.474042 11.34325,-7.268943 23.61553,-3.185306 16.66486,5.545407 24.43045,1.843914 25.72758,-12.261455 1.07774,-11.725658 1.92823,-14.599665 5.3247,-17.996162 4.37712,-4.377087 12.69933,-3.991493 22.64667,1.049012 4.54687,2.303914 10.9509,4.258871 14.23127,4.344982 0.97834,0.02571 1.87162,0.0106 2.6957,-0.05122 z M 395.48624,56.379619 c -6.29849,-0.02571 -11.0598,5.324271 -14.16356,15.999976 -5.44106,18.716338 -11.88395,21.666641 -28.9294,13.243776 -10.97409,-5.422088 -11.86632,-5.607787 -16.88303,-3.509482 -4.01063,1.678104 -6.78505,4.933694 -11.43113,13.415438 -8.43285,15.395603 -13.89692,17.920883 -28.12906,12.996133 -14.55689,-5.0381 -17.62759,-3.68535 -33.12136,14.58596 -6.26151,7.38339 -14.814,10.07947 -24.84914,7.83065 -9.00427,-2.0177 -17.39228,1.14299 -29.04521,10.94565 -0.12661,0.10644 -0.24473,0.20079 -0.36967,0.30506 0.54403,1.27998 1.05344,2.57563 1.52777,3.88586 0.36089,-0.28805 0.72182,-0.57585 1.09347,-0.88357 9.57637,-7.93069 16.30408,-9.8153 30.37499,-8.50744 14.59413,1.35672 21.61491,-0.98679 26.59611,-8.87711 7.93965,-12.57678 16.61401,-15.47975 31.04453,-10.38831 7.92545,2.79616 16.41115,3.0768 20.87022,0.6902 1.74216,-0.9317 4.95066,-5.80853 7.13166,-10.83657 3.98132,-9.181314 9.84899,-14.507176 15.97929,-14.503734 1.61438,0 7.58715,2.21226 13.27272,4.913674 17.03032,8.09151 25.35056,6.01788 28.7071,-7.154398 2.93426,-11.514887 5.0407,-15.353846 9.76532,-17.796597 5.04593,-2.60959 8.16241,-2.17049 17.04485,3.541537 V 64.718514 c -1.41006,-0.955307 -2.88923,-2.019607 -4.45664,-3.211668 -4.47942,-3.406883 -8.49656,-5.11278 -12.02983,-5.127227 z m -533.51248,1.92071 v 32.822496 c 4.59611,7.291094 12.57512,6.998033 24.85277,-0.580087 11.95814,-7.380967 19.202924,-7.692506 24.777281,-1.067632 2.155485,2.561577 4.382415,7.125814 4.948323,10.14378 0.566254,3.017274 2.768343,7.362464 4.893519,9.655734 5.010172,5.40556 12.173435,5.46218 24.690944,0.19337 5.195479,-2.18686 10.720803,-3.97409 12.278,-3.97065 5.481365,0.0114 13.072952,6.27325 16.998843,14.02031 4.744303,9.3628 10.387457,12.2942 20.8469584,10.82831 3.92175901,-0.54903 10.3384734,-1.44801 14.2602226,-1.99773 9.194385,-1.28821 15.375177,1.30208 22.235654,9.31708 6.546706,7.64821 14.242263,10.60244 27.888142,10.70575 0.87847,0.007 1.722645,0.0225 2.544739,0.0455 0.440671,-1.36211 0.917429,-2.71253 1.433677,-4.04871 -0.658776,-0.0317 -1.342814,-0.0587 -2.059267,-0.0822 -13.281123,-0.43881 -20.261138,-3.6846 -28.423248,-13.2169 -2.768237,-3.23356 -8.012589,-7.2228 -11.652934,-8.86469 -5.735898,-2.58641 -7.561573,-2.73284 -13.6760021,-1.09709 -14.8531665,3.97237 -24.1487399,0.61796 -30.0823429,-10.85622 -1.255132,-2.42726 -4.504889,-6.63584 -7.222141,-9.35274 -5.952902,-5.953253 -13.895539,-6.591309 -21.829287,-1.753701 -6.73821,4.099811 -16.23365,4.103271 -21.450827,0 -2.214036,-1.741855 -5.352197,-6.864599 -6.973459,-11.384605 -3.790525,-10.567653 -9.953149,-17.255798 -15.898122,-17.255798 -2.609449,0 -8.125673,2.485211 -13.060753,5.88411 -15.27129,10.517709 -23.00637,7.670035 -28.01586,-10.315433 -0.87702,-3.148939 -1.6189,-5.681452 -2.30483,-7.772234 z M 408.12875,102.5493 c -4.78397,0.1082 -8.6029,4.37678 -12.91394,12.99304 -6.17024,12.33256 -9.56594,15.3956 -17.06709,15.3956 -5.17413,0 -7.87406,-1.25992 -14.28918,-6.66998 -6.2312,-5.25371 -9.11059,-6.63269 -13.57003,-6.50867 -5.76239,0.1629 -5.84771,0.23429 -21.95283,18.29034 -6.10755,6.84707 -13.04903,7.26828 -23.28468,1.41145 -13.28005,-7.59792 -17.59382,-6.82737 -32.43009,5.79414 -10.06994,8.56681 -17.2851,10.05925 -28.7314,5.94359 -9.8298,-3.53515 -14.97196,-2.61185 -31.1903,5.59717 0.33385,1.43064 0.61744,2.8617 0.85721,4.30979 0.25066,-0.12584 0.48117,-0.24014 0.74347,-0.37224 12.35426,-6.22256 21.27002,-7.08787 32.43732,-3.14755 12.57366,4.43598 17.98041,3.35406 27.83129,-5.5672 7.81011,-7.07303 9.57448,-7.95163 15.96586,-7.95163 4.82278,0 10.2924,1.56909 16.63692,4.772 14.94268,7.54279 21.85731,6.02105 28.80222,-6.33596 3.29725,-5.86677 10.91166,-11.15868 16.05477,-11.15868 1.975,0 5.48869,2.11322 21.79981,13.11141 9.1968,6.20196 16.90653,2.4444 23.73086,-11.56555 4.20168,-8.62587 8.88561,-12.67967 14.41377,-12.42743 v -15.196 c -1.35865,-0.50311 -2.6327,-0.74495 -3.84396,-0.71764 z m -515.37468,9.30364 c -2.3711,0 -7.17659,3.02429 -12.57839,7.91597 -8.10415,7.33923 -13.48433,10.51138 -18.20192,9.1108 v 14.76534 c 3.6462,-0.15538 6.72702,-1.8055 11.43837,-6.06868 9.63734,-8.72043 14.03385,-11.41047 18.65173,-11.41047 5.66563,0 10.616182,3.88653 14.400852,11.30398 7.340628,14.38951 15.303488,16.26622 30.146972,7.10426 4.855176,-2.99663 10.712704,-5.9226 13.017329,-6.50092 5.922242,-1.48587 13.919592,2.82537 19.270076,10.38781 6.618691,9.35489 14.899529,10.22407 32.9838133,3.46448 11.0099447,-4.11566 17.0147327,-3.02257 27.5396847,5.01141 6.880797,5.25233 8.550277,5.8186 17.42744,5.77037 4.312066,-0.0169 9.669483,-0.4211 13.291339,-0.9632 0.194633,-1.40699 0.424443,-2.80532 0.693312,-4.19349 -0.586721,0.0114 -1.154563,0.0222 -1.780583,0.0357 -19.633567,0.42436 -17.839018,0.95034 -33.073777,-9.68828 -8.827219,-6.16404 -17.0833351,-7.07859 -25.43285556,-2.81927 -3.61520214,1.8441 -9.49187784,3.35335 -13.06023744,3.35335 -5.795837,0 -7.661691,-1.10228 -17.494662,-10.33768 -9.788193,-9.19264 -11.71648,-10.33712 -17.417617,-10.33712 -4.876874,0 -8.154532,1.33129 -13.70237,5.56615 -11.410146,8.70941 -21.021086,6.57712 -28.592832,-6.3427 -5.17412,-8.82965 -12.470384,-15.12782 -17.525674,-15.12782 z m 519.21864,40.19357 c -3.95726,1.73713 -8.20615,5.51677 -12.50187,11.20624 -7.23866,9.58775 -8.87877,10.62509 -16.81426,10.62509 -4.49731,0 -6.53233,-1.37562 -12.83275,-8.67389 -11.3995,-13.20636 -18.20361,-13.25237 -32.13644,-0.22026 -4.14976,3.88179 -9.45947,7.53828 -11.79925,8.12588 -5.22302,1.31059 -14.8437,-1.67754 -17.53861,-5.44776 -7.02562,-9.8316 -17.17736,-10.18332 -32.11625,-1.11363 -11.58753,7.03444 -19.11186,7.47809 -29.85279,1.76043 -9.17716,-4.88512 -15.79897,-5.00194 -28.68124,-0.50256 -1.07973,0.37708 -2.14241,0.71944 -3.19773,1.03041 0.0414,1.14051 0.0635,2.30926 0.0667,3.51414 2.4e-4,0.09 0,0.17801 0,0.26781 14.37418,-4.62735 18.67673,-4.44038 31.01347,1.33233 15.13038,7.08056 19.7069,7.44942 27.37785,2.20919 9.14169,-6.24429 16.56612,-9.02229 21.08169,-7.88907 2.16204,0.54284 8.58497,4.17329 14.27263,8.06747 14.36543,9.83676 20.24954,9.80112 29.54518,-0.1789 5.32914,-5.72216 8.1562,-7.44818 13.33478,-8.14293 6.34523,-0.85076 6.95803,-0.51897 17.78158,9.64641 15.22134,14.29652 20.39317,14.24776 30.83717,-0.28955 4.14619,-5.77128 8.17589,-9.17762 12.16116,-10.22079 z m -523.8428,3.03175 c -4.53223,-0.0249 -8.632,3.37969 -13.62792,10.14224 -4.9448,6.69359 -8.73929,10.6815 -12.52823,11.76615 v 14.89977 c 2.4124,-0.98514 4.85196,-2.84367 7.28625,-5.58374 14.81868,-16.70036 16.13627,-17.66041 22.35095,-16.65192 4.48904,0.72814 7.83661,3.07875 14.198698,9.96955 8.010558,8.67635 8.56844,8.98389 14.793782,8.14863 4.897888,-0.65686 8.621513,-2.8347 15.333543,-8.96913 7.78771,-7.1181 9.697456,-8.10158 15.720269,-8.10158 5.640147,0 8.2031,1.11308 14.457723,6.2817 11.393959,9.41551 17.644644,9.19648 33.91133774,-1.18757 7.39784456,-4.72188 9.48482446,-5.34158 15.31544826,-4.54248 3.713019,0.50909 10.16424,2.7394 14.335708,4.95763 9.395882,4.99603 10.270291,4.99217 26.487041,-0.1303 1.158915,-0.3663 2.227807,-0.69359 3.246836,-0.99625 -0.03912,-1.48445 -0.04002,-2.96293 -5.31e-4,-4.4339 -0.68967,0.19808 -1.345304,0.41975 -1.965671,0.66796 -9.914951,3.96687 -19.332573,3.27873 -30.20023,-2.20712 -12.739324,-6.43063 -19.2684821,-6.25888 -30.2177983,0.79517 -11.7897187,7.5955 -16.3167977,7.3232 -29.6154897,-1.78164 -6.328673,-4.33229 -13.196597,-7.67623 -16.738779,-8.15325 -5.529583,-0.74159 -6.668726,-0.15804 -14.333126,7.34724 -7.521802,7.36542 -9.017362,8.15381 -15.472099,8.15381 -6.585966,0 -7.773588,-0.67004 -15.191368,-8.56689 -7.406984,-7.88511 -12.721724,-11.79767 -17.546354,-11.82408 z m 338.02455,25.43907 c -3.33943,-0.0438 -6.9101,0.38269 -10.82107,1.25787 -0.39472,0.0883 -0.78988,0.16968 -1.18549,0.24767 -0.13559,1.4181 -0.30395,2.81591 -0.51082,4.19915 0.97869,-0.0148 1.99835,-0.033 3.10362,-0.0568 l 16.45804,-0.35778 9.93388,6.63326 c 14.67816,9.80302 19.5664,11.05983 27.86075,7.16322 15.71454,-7.38197 20.57269,-6.47241 33.93097,6.35511 12.06906,11.58887 17.78442,13.12875 26.08327,7.02671 16.25259,-11.95024 23.5137,-10.71714 34.00903,5.77658 6.42201,10.093 9.5309,12.37107 16.88253,12.37107 3.82014,0 6.88784,-1.85101 13.18485,-7.95269 6.76022,-6.55015 9.2159,-7.95166 13.93293,-7.95166 1.05125,0 2.03039,0.0877 2.95576,0.273 v -16.0124 c -4.41076,0.65795 -8.56873,3.42932 -16.0889,10.39557 -6.20605,5.74832 -8.5593,6.93416 -13.75924,6.93416 -6.64455,-3e-5 -10.13321,-3.03254 -18.27845,-15.88311 -3.89004,-6.13786 -9.71836,-8.93884 -15.51863,-7.46048 -2.09111,0.5335 -7.71368,3.49904 -12.49514,6.59035 -13.50329,8.73078 -19.32104,7.64475 -32.16125,-6.00355 -7.42055,-7.88796 -7.49458,-7.92202 -15.43489,-6.98172 -4.38778,0.52012 -9.9114,2.21197 -12.27386,3.76023 -2.80476,1.83719 -7.43973,2.81464 -13.34819,2.86631 -8.05601,0.0454 -9.88302,-0.59648 -16.61782,-5.84017 -6.26784,-4.88023 -12.49514,-7.25335 -19.84188,-7.34984 z M 60.202375,184.6741 c -12.288698,6.93146 -17.716369,7.56828 -31.563583,3.71214 -14.474595,-4.03061 -21.5687044,-2.82686 -29.8300426,5.06414 -11.0302354,10.53597 -16.1981514,11.34095 -29.1331084,4.53729 -4.724984,-2.48544 -10.438138,-4.98301 -12.696267,-5.5496 -6.938668,-1.74149 -13.686535,1.76848 -18.197273,9.46597 -4.92682,8.40666 -9.286299,11.73515 -15.370769,11.73515 -5.315342,0 -8.576273,-1.60076 -18.151257,-8.90967 -4.9251,-3.75986 -8.767745,-5.40435 -12.628535,-5.40435 -7.99817,0 -10.83913,2.08676 -14.53321,10.67426 -3.41887,7.94651 -8.99022,14.2644 -13.07214,14.82273 -1.10705,0.15134 -2.10102,0.22227 -3.05243,0.17783 v 15.5931 c 0.56734,0.0558 1.16517,0.0822 1.81471,0.0822 6.37586,0 12.21741,-5.47193 16.31794,-15.28494 6.16093,-14.74634 17.08021,-17.48021 28.343628,-7.09754 12.053551,11.11014 20.809666,10.17691 30.680528,-3.26958 3.134714,-4.27064 7.22619,-8.8344 9.091658,-10.1412 5.376997,-3.76606 13.382907,-2.85733 22.922761,2.60059 8.100461,4.63439 9.130174,4.84748 14.984559,3.09327 3.458147,-1.03607 10.1953353,-5.42283 14.9716337,-9.74827 4.7759583,-4.32475 10.2859283,-7.91636 12.2443963,-7.98524 1.959159,-0.0665 4.943119,-0.37952 6.632228,-0.6964 1.688779,-0.3162 5.532911,0.45379 8.543624,1.71182 9.764378,4.07964 18.653907,2.69913 32.326178,-5.16909 -0.112374,-0.61583 -0.220986,-1.2365 -0.324165,-1.86899 -0.116826,-0.71604 -0.222177,-1.43129 -0.321064,-2.14561 z m 151.492285,10.61993 c -0.37345,1.3343 -0.78479,2.6717 -1.24082,4.02029 0.45829,0.01 0.9213,0.0164 1.39488,0.0164 12.03497,0 16.13979,1.90716 27.88092,12.95322 10.35377,9.74171 15.09255,11.83366 23.30948,10.29061 15.11898,-2.84023 16.67227,-2.86088 21.65763,-0.28278 2.80408,1.44973 7.61894,6.57746 10.70062,11.39442 5.62295,8.79039 13.25989,14.93904 18.58657,14.93904 1.57097,0.003 6.2172,-1.78274 10.32526,-3.96962 13.79331,-7.34303 21.52734,-4.40588 28.03857,10.64839 2.38451,5.51442 5.84025,11.6369 7.67919,13.60465 4.58688,4.90548 13.75704,4.83062 19.76332,-0.16545 10.11783,-8.41698 18.46594,-9.74691 23.94488,-3.81503 1.81726,1.96813 4.84831,8.81036 6.73513,15.20483 0.49737,1.68612 0.99651,3.2355 1.50242,4.67377 v -32.05732 c -4.42773,-7.63819 -11.90372,-7.55729 -23.72722,-0.25956 -11.53829,7.12156 -15.96483,8.13838 -21.9539,5.04191 -3.57282,-1.84791 -5.70564,-4.8646 -8.24479,-11.66069 -1.88339,-5.04185 -4.54184,-10.40488 -5.90685,-11.91868 -4.39053,-4.86654 -11.7427,-5.05001 -22.41611,-0.55785 -5.36355,2.25742 -11.59745,4.10507 -13.85384,4.10507 -6.89734,0 -12.88718,-4.23939 -16.32568,-11.55417 -5.78104,-12.29847 -12.4979,-14.97133 -28.93097,-11.5149 -13.83669,2.91115 -20.42591,1.20375 -28.33691,-7.34208 -8.33228,-9.00115 -11.91166,-10.45531 -28.70088,-11.655 -0.66044,-0.0472 -1.26277,-0.0933 -1.8809,-0.13961 z m -148.528765,2.80066 c -13.599876,9.45873 -14.513304,9.3623 -27.42439,8.5669 -16.048669,-0.98851 -23.147501,0.84355 -27.9021088,7.1994 -11.2903095,15.09288 -16.3959557,17.04424 -32.5252242,12.43153 -5.983897,-1.71114 -12.436318,-3.11138 -14.340364,-3.11138 -5.238876,0 -12.455264,6.98753 -14.596283,14.13356 -3.973763,13.26389 -14.790977,16.20379 -29.917936,8.13159 -15.987361,-8.53135 -24.050799,-5.31393 -28.408269,11.3334 -2.3859,9.11551 -8.12282,15.70322 -13.67548,15.70322 -3.0398,0 -6.01662,-1.15141 -12.40208,-5.13858 v 11.46369 c 1.48733,0.97615 3.03432,2.09985 4.64276,3.37506 8.34708,6.6173 12.88687,7.19922 18.61037,2.38292 3.37169,-2.83746 5.61902,-6.95666 7.55096,-13.84196 5.02946,-17.92514 14.172131,-21.7809 29.321822,-12.36331 10.709218,6.65725 17.322687,5.6438 24.085007,-3.69146 2.597396,-3.58558 4.72187,-7.4342 4.72187,-8.55295 0,-1.11871 2.410279,-4.5891 5.356246,-7.71277 6.087916,-6.45441 12.41972,-7.39286 22.22997,-3.2944 12.2426462,5.11557 20.71399507,1.88084 29.849172,-11.39755 6.65864,-9.6773 13.204457,-12.32189 27.105907,-10.95238 11.850078,1.16787 17.065237,-0.64542 29.148106,-10.58995 -0.531795,-1.38795 -1.004361,-2.73848 -1.430055,-4.07458 z m 143.895305,9.78549 c -0.59141,1.31532 -1.22341,2.65345 -1.89641,4.01873 0.75764,0.0862 1.50875,0.13336 2.2552,0.13857 7.6568,0.0238 17.11058,7.43052 25.42666,19.92151 6.1358,9.21675 11.57011,11.89438 24.13619,11.89438 15.21996,0 18.88088,2.41688 25.98451,17.15497 4.28446,8.88816 7.30957,13.03794 11.06769,15.18102 4.85828,2.77202 5.6244,2.79729 12.60888,0.41723 9.21129,-3.1385 13.71119,-3.19066 19.44844,-0.22437 4.82768,2.49717 6.79506,6.47423 9.77618,19.76638 3.43125,15.30194 10.67311,18.83493 25.22243,12.30543 11.15457,-5.0057 15.8927,-5.22368 20.49023,-0.93993 3.76264,3.50532 4.19664,4.91217 6.54535,21.21712 2.61119,18.12138 7.31382,20.80326 23.84616,12.69265 v -11.78839 c -3.1145,0.9555 -4.89931,0.90014 -6.74389,0.19853 -5.99425,-2.27879 -8.52283,-7.51243 -9.58645,-19.84085 -1.59647,-18.50933 -8.22654,-22.13006 -26.46479,-14.45357 -5.19547,2.18672 -11.31314,3.97582 -13.5933,3.97582 -5.65805,0 -13.45265,-7.98031 -13.45265,-13.79336 -0.0295,-15.02641 -7.24088,-22.39589 -20.13452,-20.57762 -3.79086,0.53489 -9.99492,1.41042 -13.78613,1.94501 -10.56903,1.49106 -15.94649,-2.04843 -20.13968,-13.25568 -1.8827,-5.03153 -4.23451,-10.1258 -5.22649,-11.32102 -3.14605,-3.79051 -9.56744,-5.41983 -20.48297,-5.20629 -16.09242,0.31897 -23.81722,-3.78054 -30.0591,-15.94982 -3.47743,-6.78058 -12.53309,-11.71368 -24.54874,-13.37459 -0.23172,-0.032 -0.46223,-0.067 -0.6928,-0.10186 z m -138.675554,2.88597 c -10.761577,11.26721 -13.081098,12.36886 -28.707615,13.94433 -15.050491,1.51727 -19.351792,4.12032 -25.126269,15.21151 -6.9830955,13.41166 -10.3332507,14.74389 -33.613015,13.36375 -11.50005,-0.68166 -16.500976,2.37879 -19.01157,11.63792 -3.161581,11.65845 -4.991877,15.56562 -8.412819,17.96154 -4.249313,2.97454 -11.550452,2.95091 -20.101429,-0.0656 -9.494046,-3.34999 -17.76928,-3.05138 -21.89184,0.78946 -3.248377,3.02622 -3.896313,5.24492 -5.800358,19.88482 -0.912067,7.0117 -6.825751,13.51883 -12.286791,13.51883 -1.77282,0 -8.11502,-2.14672 -14.09375,-4.77098 -7.58382,-3.32742 -13.24075,-4.95277 -17.36643,-4.66092 v 26.52375 c 0.34743,-4.07683 1.32914,-5.96464 3.77522,-8.41075 5.13211,-5.13244 10.57221,-4.90878 22.29718,0.91667 11.73943,5.83061 14.240973,5.87066 19.795354,0.31693 3.52014,-3.5208 4.753507,-6.78393 6.160201,-16.3014 1.418386,-9.59429 2.562034,-12.59226 5.902724,-15.47727 4.81935,-4.16216 11.259725,-4.56031 19.319189,-1.19275 14.019251,5.8578 22.338925,1.35476 26.878941,-14.54718 4.284103,-15.0047 12.964872,-21.38304 24.5709926,-18.05405 13.307656,3.81638 20.7757644,-0.36897 28.7122664,-16.09043 5.692158,-11.27618 12.900581,-15.71923 25.500068,-15.71923 10.03941,0 15.813027,-3.27106 25.60812,-14.62784 -0.757473,-1.44475 -1.459379,-2.82567 -2.10837,-4.15004 z m 132.520514,9.18575 c -0.28676,0.51133 -0.57634,1.02519 -0.87375,1.54588 -0.41146,0.72043 -0.7676,1.32942 -1.1612,2.01065 9.39848,3.8621 15.85766,10.47488 20.64273,21.02791 5.6374,12.43315 12.48857,18.40305 21.12049,18.40305 7.76982,0 16.61088,3.95994 19.83824,8.88537 1.31162,2.0019 3.39489,7.97201 4.63037,13.26807 1.23513,5.29534 3.14415,11.06631 4.24155,12.82293 3.29554,5.27713 10.65576,7.87499 18.30638,6.46213 15.47067,-2.85744 21.72148,2.83152 23.09647,21.01707 1.01749,13.44822 3.03964,17.72266 9.68622,20.47575 3.77741,1.56481 6.48754,1.41768 14.82223,-0.80292 17.64717,-4.70258 23.49223,0.97736 21.86755,21.24712 -1.06363,13.2687 0.55199,19.51398 5.77086,22.30699 2.75826,1.47627 5.96482,1.0303 16.73776,-2.32863 14.18907,-4.42432 20.31301,-4.21779 22.98481,0.77449 2.06969,3.86734 1.95446,14.04844 -0.29677,26.26732 -1.60991,8.73594 -1.5034,10.53504 0.83188,14.09892 1.87952,2.869 4.78729,4.2119 8.82073,4.03217 v -60.91281 c -4.43441,-1.70131 -11.52101,-0.91947 -21.86909,2.3095 -10.63102,3.31695 -12.05198,3.4313 -15.90381,1.27238 -6.73682,-3.78811 -8.55424,-9.26856 -6.73666,-20.55435 2.97801,-18.49106 -3.72418,-24.31402 -22.80488,-19.81395 -13.19056,3.11098 -14.46718,2.97658 -20.16762,-2.11665 -4.67711,-4.18009 -4.96248,-5.08037 -4.81441,-15.10452 0.14432,-9.63354 -0.28533,-11.15724 -4.46232,-15.83195 -4.57827,-5.12105 -4.75841,-5.1727 -19.19512,-5.1727 -14.39297,0 -14.63043,-0.0631 -19.13047,-5.09876 -2.54505,-2.84781 -4.96662,-7.76181 -5.48704,-11.13284 -2.40145,-15.5613 -5.73622,-18.63435 -23.59593,-21.73982 -10.40712,-1.80896 -13.32381,-3.02675 -17.92272,-7.48479 -3.0214,-2.92841 -6.20492,-7.96836 -7.0753,-11.19951 -2.03685,-7.56413 -9.26752,-13.8143 -21.90118,-18.9335 z m -125.568253,3.77987 c -4.980187,8.36367 -12.185259,13.48884 -22.647201,16.16024 -17.244553,4.40295 -21.738336,8.43443 -24.804165,22.25219 -1.122177,5.05597 -5.882108,11.18737 -10.701117,13.78407 -1.596125,0.86042 -8.6544364,2.14452 -15.685105,2.85339 -16.90529,1.70429 -20.14001,4.64765 -21.102371,19.20596 -0.60483,9.15342 -1.237943,10.77824 -5.790014,14.85014 -5.019125,4.48975 -5.348843,4.55259 -18.31205,3.50069 -10.287627,-0.83458 -14.225683,-0.54001 -17.848808,1.33337 -5.96977,3.08715 -6.624991,5.02906 -6.624991,19.64594 0,19.32737 -5.074954,22.45979 -27.197418,16.79101 -8.923317,-2.28669 -11.251767,-2.37789 -15.525867,-0.60751 -6.41169,2.65597 -7.5336,7.10856 -5.34953,21.22182 1.79313,11.58377 1.41355,14.45382 -2.51268,19.02552 -2.89593,3.37243 -8.34009,3.5609 -19.26283,0.39499 v 10.98445 c 2.94458,0.56835 6.30383,1.67175 10.05692,3.33161 19.99178,8.84132 26.741,2.98389 23.16782,-20.10815 -1.53516,-9.92081 -1.48364,-12.98419 0.27919,-16.66173 3.03449,-6.33246 9.158077,-8.13039 18.490936,-5.4307 4.134259,1.19589 10.456123,2.47881 14.04825,2.84668 5.630846,0.58038 7.002373,0.0754 9.940074,-3.6589 2.872597,-3.65173 3.407626,-6.4417 3.407626,-17.75782 0,-12.71904 0.245353,-13.67178 4.648973,-18.07576 5.222689,-5.222 6.563526,-5.41428 19.352797,-2.77276 7.996091,1.65152 9.593347,1.54191 13.348726,-0.91873 5.084236,-3.33141 8.771112,-11.42071 8.771112,-19.24628 0,-8.32675 3.8429617,-16.13777 9.3377544,-18.97901 2.83539851,-1.46631 8.8274295,-2.49095 14.5616466,-2.49095 8.519632,0 10.295153,-0.55173 14.136654,-4.39358 2.431384,-2.43136 5.978884,-9.15899 7.943896,-15.06468 2.351116,-7.06475 5.140733,-12.00768 8.257196,-14.62989 4.419117,-3.71852 13.552533,-7.21323 18.920575,-7.26143 3.828515,-0.0269 9.703399,-5.59801 17.022106,-16.07961 -0.816181,-1.40291 -1.589101,-2.74689 -2.328105,-4.04458 z M 193.972,231.75683 c -0.61746,1.07011 -1.27563,2.2287 -1.95843,3.45105 6.12272,4.40642 10.24971,10.767 12.65386,19.44431 5.24717,18.94026 8.33242,22.9869 19.42261,25.47785 13.81326,3.10338 19.44997,10.55251 19.44997,25.70531 0,9.52714 3.23717,18.15274 7.71278,20.54761 1.76591,0.9448 6.5137,1.71804 10.55119,1.71804 16.08069,0 22.46608,8.31214 19.7571,25.71514 -2.81509,18.08122 2.79512,24.77755 19.20131,22.92173 7.17287,-0.81147 10.63422,-0.45932 14.35276,1.46366 7.62514,3.94313 8.55599,8.62765 4.70896,23.70914 -2.5068,9.82885 -2.92026,13.99774 -1.70408,17.19684 2.68076,7.05029 6.68606,8.13968 21.70624,5.90532 11.73394,-1.74595 13.7243,-1.6751 17.21445,0.61163 3.56321,2.33475 5.1957,4.56573 4.98346,8.95724 h 12.42536 c 3.8874,-10.45214 3.48189,-16.82204 -1.21706,-19.90084 -3.25495,-2.13237 -6.5498,-2.36674 -19.92254,-1.41919 -13.89386,0.9851 -16.4209,0.77614 -19.01828,-1.5743 -4.84968,-4.38882 -5.29034,-9.92981 -1.7113,-21.49426 5.52305,-17.84525 1.11748,-23.16902 -18.72412,-22.62652 -19.97111,0.54556 -25.60287,-5.41134 -22.23565,-23.51836 2.89053,-15.54238 -0.81751,-19.89451 -19.16462,-22.49261 -5.7855,-0.81973 -12.21307,-2.60011 -14.28347,-3.9572 -5.33396,-3.49465 -8.5216,-12.01869 -7.31574,-19.55909 1.82724,-11.42638 -3.81185,-16.99463 -24.9272,-24.61495 -8.95639,-3.23256 -13.76946,-9.42858 -15.85158,-20.40645 -1.64285,-8.66336 -6.53816,-15.17517 -16.10598,-21.2611 z m -110.458586,6.04389 c -3.625027,7.63098 -8.351462,11.46041 -19.732285,17.02311 -6.478504,3.16675 -13.121516,7.62736 -14.762753,9.91268 -1.641586,2.2857 -3.501477,8.53978 -4.13351,13.89781 -1.366385,11.58824 -5.521126,16.93497 -15.158793,19.50584 -22.9022734,6.10961 -26.9698823,9.92953 -25.3951178,23.85441 2.0215286,17.86457 -2.0938432,22.32694 -21.9368202,23.78462 -10.1843,0.74847 -13.122898,1.59835 -16.501477,4.77202 -3.479147,3.2663 -3.982229,4.84297 -3.278891,10.2234 3.040337,23.26081 3.032073,23.6978 -0.498398,27.43421 -3.079952,3.26149 -4.838324,3.57825 -19.71832,3.57825 -14.242791,0 -16.782759,0.41537 -19.817589,3.24217 -4.297879,4.00443 -4.347682,7.09256 -0.299867,18.60984 3.551357,10.1034 4.285554,16.92774 1.92587,20.94262 h 14.438595 c -0.498407,-2.22987 -1.188629,-4.73331 -2.071667,-7.55046 -4.14254,-13.21497 -3.987615,-17.06722 0.880987,-21.93579 3.906254,-3.90625 4.491033,-4.00332 17.580996,-2.91284 12.734503,1.06052 13.77142,0.91014 17.428993,-2.5256 4.433244,-4.16459 5.012121,-10.71254 2.073733,-23.44287 -1.000929,-4.32547 -1.337281,-9.76987 -0.752771,-12.0986 1.525852,-6.07896 9.733114,-10.68035 18.4718108,-10.35316 11.2823557,0.41991 12.6284407,0.0955 16.7713557,-4.04768 3.5559535,-3.55494 3.9039505,-5.15841 3.9039505,-17.93569 0,-15.45345 1.596355,-19.37789 9.55904,-23.49561 2.527821,-1.30714 7.081543,-2.3767 10.119478,-2.3767 11.015068,0 16.919547,-8.47824 19.382267,-27.82973 0.829748,-6.52224 2.138124,-9.0206 7.28366,-13.91538 3.449533,-3.2818 7.49409,-5.97302 8.988256,-5.97302 6.297858,-0.0132 12.807157,-6.00297 17.550489,-16.08787 -0.816031,-1.57945 -1.52407,-2.91555 -2.301222,-4.29998 z m 103.072036,7.59024 c -0.75916,1.52828 -1.41313,2.87804 -1.98686,4.1118 2.72721,4.60855 4.13064,10.15973 4.93486,18.13936 1.69772,16.83777 4.36665,21.48719 15.04453,26.20941 13.03174,5.76311 15.41466,10.61647 14.12581,28.76552 -0.96685,13.61183 -0.81684,14.63327 2.7505,18.74377 2.41034,2.7772 6.8961,5.16578 12.41811,6.61102 15.53304,4.06574 19.6677,12.85634 13.74994,29.2329 -6.1499,17.01792 0.52169,25.58678 19.91582,25.63501 7.1099,0.0111 14.14752,5.95475 14.14752,11.94865 0,2.27603 -2.14672,9.18451 -4.77098,15.35061 -0.6856,1.61119 -1.29047,3.08541 -1.81832,4.44269 h 11.57898 c -0.0935,-2.88251 1.26142,-6.08126 4.57609,-12.6482 5.36081,-10.61998 5.88631,-15.19492 2.32757,-20.27565 -2.50233,-3.57286 -8.65115,-5.70163 -21.57644,-7.47237 -13.26423,-1.8169 -18.33952,-10.52441 -13.46403,-23.09494 4.75906,-12.27228 4.77584,-14.88706 0.13388,-20.40389 -3.09923,-3.68272 -7.189,-5.90613 -15.32525,-8.32958 -15.27095,-4.54724 -17.78069,-8.53685 -16.47666,-26.18406 0.86524,-11.70498 0.64738,-13.06816 -2.72568,-17.04123 -2.01633,-2.37522 -7.95184,-6.69598 -13.19001,-9.60093 -12.1934,-6.76165 -16.02256,-14.12278 -16.69122,-27.15862 l -1.70305,-8.85591 z m -94.920311,9.35534 c -2.782163,4.10049 -7.052599,7.84736 -13.845063,12.47652 -10.980971,7.48358 -13.266016,11.82099 -12.784155,24.27682 0.565571,14.63648 -2.511514,19.16679 -18.018383,26.52737 -9.51644,4.51728 -12.5853,6.84853 -14.613342,11.10231 -2.37834,4.99294 -2.362692,6.02922 0.220245,14.22198 5.027389,15.95053 1.421381,21.60146 -16.84477,26.39709 -12.31329,3.23219 -18.7551365,8.19153 -18.7551365,14.43962 0,1.851 1.8062454,7.88084 4.0140933,13.39942 6.764421,16.9087 3.0281809,22.06008 -17.8756948,24.64337 -15.066199,1.8625 -21.072787,4.59145 -20.295824,12.3509 h 20.12055 c 3.947351,-2.92222 10.1164971,-4.63449 17.43675448,-4.63449 12.20685852,-0.003 16.55693252,-3.47676 16.26416252,-12.98322 -0.117456,-3.79396 -1.71189,-10.11928 -3.543598,-14.0555 -6.7909135,-14.59479 -2.205396,-24.41368 12.246458,-26.22026 9.915641,-1.2396 14.908363,-3.95436 17.611498,-9.57869 1.950204,-4.05848 1.917129,-6.24324 -0.254882,-16.63693 -2.132402,-10.20669 -2.183977,-12.71993 -0.352599,-17.10326 2.21196,-5.295 10.565062,-11.564 15.434355,-11.564 1.516557,-0.003 5.07281,-2.07467 7.902016,-4.6035 5.00982,-4.47526 5.167416,-5.01802 5.98958,-20.56414 0.968214,-18.31162 3.016435,-22.4382 14.249887,-28.71279 3.399029,-1.89829 6.004507,-3.96705 8.05505,-6.59033 -0.706549,-2.20215 -1.493296,-4.39321 -2.361202,-6.58829 z m 5.447761,18.75048 c -4.429493,4.45783 -8.950539,10.50314 -10.261137,13.77784 -2.25502,5.69249 -2.252409,7.02978 0.04812,14.94424 3.982368,13.69862 0.706849,20.05712 -16.094071,31.24199 -11.003362,7.32586 -12.516697,14.01684 -6.055761,26.76729 7.094019,13.99916 3.38269,21.39546 -14.23282,28.3648 -6.443377,2.54916 -10.262937,5.20695 -12.360212,8.59999 -3.697181,5.98181 -2.889674,10.49056 3.495525,19.50789 5.504657,7.77422 7.439054,13.41927 5.414664,17.88088 h 14.590081 c -1.104699,-3.93404 -3.873986,-9.53656 -8.206532,-16.57387 -7.566926,-12.29018 -3.866453,-20.35253 11.995197,-26.13597 7.864168,-2.86709 10.151664,-4.51388 11.835951,-8.51934 2.428964,-5.77684 1.849566,-10.31594 -2.581957,-20.21363 -6.039694,-13.48884 -3.44362,-22.69619 8.052978,-28.56127 12.366996,-6.30943 15.063958,-14.08666 10.995819,-31.71043 -2.091502,-9.06111 -0.693102,-16.20002 4.46646,-22.3225 -0.298143,-2.40082 -0.665199,-4.74454 -1.102268,-7.04791 z m 79.84785,15.55894 c -0.7053,2.02753 -0.13781,5.02611 -0.4529,9.17129 1.72258,3.70675 2.68375,3.51212 5.19185,5.17167 6.98106,4.62025 12.50908,12.51194 12.50908,17.88757 0.003,1.93779 -1.16064,6.94709 -2.58762,11.13231 -5.36012,15.72805 -2.27367,25.90408 8.86986,29.24271 8.64711,2.59048 14.71725,9.24014 14.71725,16.122 0,2.99281 -2.28538,9.96961 -5.07913,15.50364 -7.96197,15.77247 -4.85115,23.79838 10.56101,27.24757 11.12696,2.48994 16.51677,7.04887 16.30138,14.04722 h 14.80259 c 3.34301,-8.38875 -1.87279,-13.96767 -16.70416,-18.90301 -17.45538,-5.80896 -20.82083,-13.48574 -12.24748,-27.9383 8.21481,-13.84874 6.0643,-20.0739 -9.9654,-28.85391 -15.63053,-8.56166 -18.50455,-15.59482 -12.19841,-29.85176 4.60435,-10.40854 2.51785,-15.85892 -10.42399,-27.22121 -2.69546,-2.36651 -4.88726,-4.43908 -6.64981,-6.3913 -1.63236,-1.80812 -4.76661,-4.57959 -6.64412,-6.36649 z m -70.20558,45.78298 c -1.00085,1.16856 -2.10232,2.38162 -3.33524,3.6656 -7.752573,8.07323 -9.850598,11.36808 -10.548082,16.56455 -0.764987,5.70456 -0.172953,7.38245 4.90645,13.90194 9.234682,11.85277 7.867792,21.08155 -4.232267,28.57682 -11.873069,7.3551 -15.437457,11.62265 -15.437457,18.48111 0,5.17376 1.16953,7.37588 7.222661,13.60361 1.707508,1.75675 3.166477,3.39881 4.38374,4.94937 h 12.448105 c -0.36496,-0.42171 -0.74187,-0.84943 -1.13329,-1.28478 -13.80949,-15.35979 -12.693916,-24.61346 3.90964,-32.42804 4.93303,-2.32221 7.61585,-4.86191 9.23953,-8.74783 2.68626,-6.42853 1.72327,-10.14372 -5.63389,-21.73882 -7.10432,-11.197 -6.47597,-21.27441 1.54535,-27.88555 -1.84147,-2.16782 -2.81889,-5.06014 -3.33525,-7.65798 z m 61.55183,0.93683 c -0.0994,-0.0172 -0.34788,0.8251 -0.88924,2.79288 -0.70733,0.73775 -4.20923,7.72282 -4.99331,8.79026 -2.79968,3.81156 -4.35281,17.8641 6.20672,23.79961 6.53498,3.67272 9.67486,8.59675 9.67486,15.1717 0,4.79835 -1.93127,8.64852 -8.99911,17.94138 -9.40622,12.36735 -6.84499,20.44538 8.99911,28.38704 1.23734,0.62024 2.38351,1.26245 3.4407,1.9233 h 18.35135 c -1.78097,-1.47801 -3.90103,-2.85588 -6.32304,-4.06786 -10.58969,-5.29947 -15.05212,-9.42214 -16.28797,-15.04816 -1.14937,-5.23441 0.84525,-9.55855 8.20551,-17.78987 5.58915,-6.25084 6.87834,-12.83016 3.68371,-18.79959 -0.90968,-1.69877 -5.38285,-6.02427 -9.94061,-9.61332 -14.40661,-8.24665 -10.59153,-33.3948 -11.12868,-33.48737 z"
       id="path3254" />
  </g>
</svg>
